<?xml version="1.0" encoding="UTF-8"?>
<svg width="40px" height="40px" viewBox="0 0 40 40" version="1.1" xmlns="http://www.w3.org/2000/svg" xmlns:xlink="http://www.w3.org/1999/xlink">
    <!-- Generator: Sketch 54.1 (76490) - https://sketchapp.com -->
    <title>Brand / Reclame Aqui / Stamp / Otimo</title>
    <desc>Created with Sketch.</desc>
    <defs>
        <polygon id="path-1" points="7.72430566 0 29.6090789 0 29.6090789 4.44434534 7.72430566 4.44434534"></polygon>
    </defs>
    <g id="Brand-/-Reclame-Aqui-/-Stamp-/-Otimo" stroke="none" stroke-width="1" fill="none" fill-rule="evenodd">
        <g id="Group" transform="translate(1.000000, 0.000000)">
            <path d="M18.6667,3.8096 C28.9767,3.8096 37.3337,11.9116 37.3337,21.9046 C37.3337,31.8986 28.9767,39.9996 18.6667,39.9996 C8.3577,39.9996 -0.0003,31.8986 -0.0003,21.9046 C-0.0003,11.9116 8.3577,3.8096 18.6667,3.8096" id="Fill-1" fill="#000000"></path>
            <path d="M18.6667,4.4443 C28.2657,4.4443 36.0457,12.2613 36.0457,21.9043 C36.0457,31.5483 28.2657,39.3653 18.6667,39.3653 C9.0687,39.3653 1.2877,31.5483 1.2877,21.9043 C1.2877,12.2613 9.0687,4.4443 18.6667,4.4443" id="Fill-4" fill="#619A41"></path>
            <path d="M35.402,21.2695 C35.402,30.5625 27.909,38.0955 18.667,38.0955 C9.424,38.0955 1.931,30.5625 1.931,21.2695 C1.931,11.9765 9.42,4.4445 18.667,4.4445 C27.914,4.4445 35.402,11.9805 35.402,21.2695" id="Fill-6" fill="#7BBA48"></path>
            <path d="M5.8078,23.4922 C5.8078,23.4922 5.2748,32.4872 10.6448,34.0532 C16.0158,35.6192 9.9918,28.7672 9.9918,28.7672 L7.0728,24.2102 L5.8078,23.4922 Z" id="Fill-8" fill="#619A41"></path>
            <path d="M27.0348,31.7461 C27.0348,31.7461 30.2898,30.1551 29.4788,24.1271 L28.7388,24.1271 L28.2768,24.5981 L27.6998,27.6141 L27.0348,31.7461 Z" id="Fill-10" fill="#619A41"></path>
            <path d="M7.4167,20.3174 C7.4167,20.3174 6.0637,16.2414 8.7847,14.6034 L10.2987,18.4774 L9.6487,19.6604 L7.4167,20.3174 Z" id="Fill-12" fill="#619A41"></path>
            <path d="M5.1506,20.7441 C5.1506,20.7441 5.0836,21.0241 5.9706,21.0241 C5.9706,21.0241 7.1746,20.4001 9.8316,21.5871 L10.2986,20.8181 L8.2826,20.5101 C8.2826,20.5101 6.1036,19.9481 5.1506,20.7441" id="Fill-14" fill="#619A41"></path>
            <path d="M26.9528,13.3335 C26.9528,13.3335 29.3978,14.3315 27.7528,20.2575 L26.2408,20.9525 L25.7468,19.5795 L25.7468,16.5295 L26.9528,13.3335 Z" id="Fill-16" fill="#619A41"></path>
            <path d="M25.7467,22.2227 C25.7467,22.2227 28.0267,21.1187 30.2527,21.8867 C30.2517,21.8867 28.5487,16.7107 25.7467,22.2227" id="Fill-18" fill="#619A41"></path>
            <path d="M9.4699,13.6509 C6.6149,15.9919 7.1709,21.6619 11.8109,21.5869 C14.7009,21.5389 16.3819,19.4239 16.0509,16.9059 C15.6129,13.5609 12.2929,11.3359 9.4699,13.6509" id="Fill-20" fill="#FFFFFF"></path>
            <path d="M28.2194,24.7656 C23.1594,27.2936 16.6044,28.1846 11.0194,26.6616 C9.5374,26.2566 8.2864,25.6646 7.1954,24.8626 C7.0884,26.8436 7.0384,26.7246 7.1234,27.7576 C15.1834,30.6866 22.2244,30.5276 28.2464,27.2806 C28.3554,26.4446 28.3464,25.5956 28.2204,24.7616 L28.2194,24.7656 Z" id="Fill-22" fill="#FFFFFF"></path>
            <path d="M22.0134,11.4297 C24.6244,11.3767 26.7144,13.5137 27.0044,16.5547 C27.2944,19.5967 25.4494,22.1637 22.1874,22.2217 C15.7984,22.3327 15.8134,11.5557 22.0134,11.4297" id="Fill-24" fill="#FFFFFF"></path>
            <path d="M12.2297,34.3311 L12.2297,34.2861 L12.2297,34.3311 Z" id="Fill-26" fill="#3E6B34"></path>
            <path d="M25.6774,32.3809 C26.4664,31.5389 27.1044,30.5619 27.5624,29.4919 C27.6034,29.3989 27.6414,29.3039 27.6784,29.2059 L27.6134,29.2129 C26.2894,29.8609 25.2354,30.1559 24.4774,30.1429 L24.4594,30.1269 C24.9114,30.5389 25.2924,31.2069 25.6774,32.3809" id="Fill-28" fill="#579542"></path>
            <path d="M11.4836,34.2861 C11.3876,32.5781 11.6866,31.3171 12.2296,30.5091 C10.8526,30.3661 9.1896,30.1131 7.7326,29.2061 L7.7246,29.2191 C8.3936,31.3081 9.7196,33.0961 11.4836,34.2861" id="Fill-30" fill="#579542"></path>
            <path d="M12.2297,30.5117 L12.2557,30.4767 L12.2297,30.5117 Z" id="Fill-32" fill="#3E6B34"></path>
            <path d="M13.6862,29.8408 C12.7902,33.9308 16.5192,35.1978 20.0472,34.4258 C21.9322,34.0128 24.3882,32.4198 24.6152,31.2168 C24.8812,31.7118 25.0472,32.2558 25.1032,32.8168 C21.6182,35.8868 16.2122,36.3958 12.2772,34.2428 C12.0672,31.9978 12.5572,30.5258 13.6862,29.8408" id="Fill-34" fill="#325327"></path>
            <path d="M7.9806,29.3896 C9.3586,30.1476 10.9356,30.3586 12.2406,30.4766 C12.4106,30.2486 12.6256,30.0536 12.8736,29.9006 C11.1046,29.6546 9.3756,29.2076 7.7246,28.5716 C7.7976,28.8536 7.8836,29.1256 7.9806,29.3896" id="Fill-36" fill="#467739"></path>
            <path d="M24.155,30.4756 C24.907,30.4916 25.961,30.1626 27.286,29.4406 C27.454,28.9526 27.585,28.4496 27.678,27.9366 C26.775,28.7226 25.17,29.4106 23.173,29.8766 C23.536,29.9916 23.872,30.1966 24.155,30.4756" id="Fill-38" fill="#467739"></path>
            <path d="M21.0632,11.4287 C17.3772,13.9197 16.6372,18.9837 21.7562,21.8807 C16.4352,21.3397 16.2562,12.7247 21.0632,11.4347 L21.0632,11.4287 Z M27.4482,25.2157 C27.8102,25.6307 27.9162,26.4667 27.9052,27.4867 C28.0202,27.4287 28.1332,27.3707 28.2472,27.3127 C28.3552,26.4957 28.3462,25.6677 28.2202,24.8547 C27.9662,24.9777 27.7092,25.0967 27.4482,25.2117 L27.4482,25.2157 Z M7.9152,25.4297 C7.5052,26.2057 7.4472,27.0537 7.5722,27.9367 C7.4222,27.8867 7.2732,27.8297 7.1232,27.7807 C7.0392,26.7707 7.0892,26.8877 7.1952,24.9547 C7.4272,25.1217 7.6672,25.2807 7.9152,25.4277 L7.9152,25.4297 Z M10.7232,12.9057 L12.0132,12.6707 L12.0402,12.6707 C7.8372,13.8997 6.9912,19.8177 11.1112,21.8017 C10.8042,21.7637 10.5022,21.6887 10.2132,21.5787 C10.1582,21.5597 10.1062,21.5367 10.0502,21.5137 L10.0402,21.5137 C9.9452,21.4707 9.8522,21.4247 9.7642,21.3747 L9.7392,21.3617 L9.6212,21.2917 L9.5882,21.2707 L9.4922,21.2087 L9.4452,21.1757 L9.3582,21.1117 L9.3082,21.0737 L9.2332,21.0127 L9.1782,20.9667 L9.1162,20.9107 L9.0602,20.8597 L8.9982,20.7987 L8.9442,20.7437 L8.8892,20.6827 L8.8342,20.6217 L8.7862,20.5657 L8.7302,20.4957 C7.2582,18.6357 7.5952,15.3267 9.5242,13.6557 C9.8812,13.3407 10.2882,13.0877 10.7292,12.9077 L10.7232,12.9057 Z" id="Fill-40" fill="#DFEAEA"></path>
            <path d="M9.1935,12.7925 C12.3015,10.0635 15.9535,12.6865 16.4385,16.6275 C16.8045,19.5995 14.9535,22.0875 11.7715,22.1455 C10.1075,22.1755 8.9215,21.4875 8.1855,20.4485 C7.0975,20.0715 5.9665,19.9905 4.8315,20.4485 C4.0205,20.7665 4.7855,19.6265 6.4365,19.5915 C6.8965,19.5845 7.3565,19.6465 7.7985,19.7765 C6.7675,17.6025 7.2915,14.4705 9.2025,12.7985 L9.1935,12.7925 Z" id="Fill-42" fill="#060405"></path>
            <path d="M25.5016,21.4941 C25.9346,21.1961 26.3286,20.6721 26.8506,20.4891 C28.0986,20.0531 28.7946,20.7091 29.3886,20.9661 C29.5496,21.0351 29.7026,20.9371 29.5386,20.7671 C28.6656,19.8911 27.5936,19.3881 26.3946,20.1951 C27.2016,19.0561 27.5716,17.5581 27.4226,15.9411 C27.1076,12.5111 24.8166,10.1041 21.9576,10.1601 C15.1706,10.3011 15.1536,22.4581 22.1476,22.3321 C23.3986,22.3091 24.4596,21.9391 25.2916,21.3191 C25.2186,21.5041 25.3236,21.6161 25.5016,21.4941" id="Fill-44" fill="#060405"></path>
            <path d="M21.9772,10.9629 C15.9302,11.0859 15.9152,21.6389 22.1472,21.5279 C25.3302,21.4739 27.1292,18.9579 26.8462,15.9809 C26.5632,13.0029 24.5252,10.9099 21.9772,10.9619 L21.9772,10.9629 Z" id="Fill-46" fill="#FFFFFF"></path>
            <path d="M11.2677,21.4375 C10.9087,21.4065 10.5567,21.3265 10.2197,21.1985 C10.1657,21.1775 10.1147,21.1565 10.0597,21.1325 L10.0497,21.1325 C9.9577,21.0895 9.8667,21.0445 9.7807,20.9955 L9.7557,20.9815 L9.6397,20.9135 L9.6077,20.8915 L9.5147,20.8305 L9.4677,20.7975 L9.3837,20.7335 L9.3337,20.6955 L9.2607,20.6355 L9.2057,20.5895 L9.1447,20.5345 L9.0907,20.4825 L9.0297,20.4225 L8.9777,20.3685 L8.9227,20.3085 L8.8697,20.2475 L8.8227,20.1915 L8.7677,20.1225 C7.3267,18.2745 7.6577,14.9905 9.5457,13.3305 C12.2487,10.9585 15.4237,13.2385 15.8467,16.6665 C16.1607,19.2465 14.5547,21.4145 11.7877,21.4625 C11.6147,21.4645 11.4417,21.4585 11.2697,21.4425 L11.2677,21.4375 Z" id="Fill-48" fill="#FFFFFF"></path>
            <path d="M21.7243,14.8872 L21.8013,14.8872 C21.5003,15.1712 21.3853,15.6042 21.5043,16.0032 C21.6243,16.4022 21.9573,16.6972 22.3643,16.7632 C22.7703,16.8302 23.1783,16.6582 23.4163,16.3182 C23.4163,16.3652 23.4223,16.4122 23.4223,16.4602 C23.4223,17.4002 23.0423,18.1582 21.9473,18.1582 C20.8503,18.1582 20.2483,17.3952 20.2483,16.4602 C20.2483,15.5252 20.7873,14.8852 21.7243,14.8852 L21.7243,14.8872 Z" id="Fill-50" fill="#060405"></path>
            <path d="M6.5094,23.9404 C6.3034,23.7584 6.1034,23.5674 5.9084,23.3654 C5.6994,22.8504 6.0934,22.8004 6.2994,22.9214 C7.6274,24.1244 9.2184,24.9904 10.9414,25.4484 C16.0034,26.8284 21.7594,25.8914 26.4314,24.1974 C26.9074,24.0244 27.8324,23.7364 28.3914,23.5784 C28.8194,23.4574 28.9374,23.3904 29.0344,23.6324 C29.1584,23.9404 28.6924,24.0864 28.4654,24.1634 C30.0914,34.5964 18.4414,38.5474 11.3434,34.8094 C8.1764,33.1374 5.9824,29.2544 6.5094,23.9404" id="Fill-52" fill="#060405"></path>
            <mask id="mask-2" fill="white">
                <use xlink:href="#path-1"></use>
            </mask>
            <g id="Clip-55"></g>
            <path d="M11.8278,0.6577 C14.3668,-0.1583 14.9388,0.9477 14.4238,2.0837 C14.0598,2.8857 12.5148,3.3917 11.3188,3.8337 C8.1268,5.0107 4.9278,4.7537 11.8278,0.6577 L11.8278,0.6577 Z M26.3588,3.7527 C31.2938,5.1937 29.9508,3.5467 26.6868,1.4447 C23.8248,-0.3993 23.2398,-0.1723 22.9838,0.4527 C22.5678,1.4577 23.4738,2.9117 26.3618,3.7527 L26.3588,3.7527 Z" id="Fill-54" fill="#060405"></path>
            <path d="M11.8888,14.9551 C10.9518,14.9551 10.5088,15.5921 10.5088,16.5301 C10.5088,17.4681 11.1108,18.2281 12.2068,18.2281 C13.3028,18.2281 13.6818,17.4651 13.6818,16.5301 C13.6818,16.4881 13.6818,16.4451 13.6768,16.4051 C13.4228,16.6981 13.0328,16.8311 12.6558,16.7551 C12.2778,16.6781 11.9688,16.4031 11.8448,16.0341 C11.7218,15.6641 11.8028,15.2561 12.0568,14.9631 C12.0008,14.9631 11.9458,14.9561 11.8888,14.9561 L11.8888,14.9551 Z" id="Fill-60" fill="#000000"></path>
            <path d="M25.3288,32.1602 C24.6918,30.2332 24.0558,29.6782 23.1048,29.3772 C25.1698,28.9522 26.8278,28.3082 27.7608,27.5732 C27.6418,28.1612 27.4638,28.7352 27.2248,29.2862 C26.7658,30.3482 26.1228,31.3192 25.3288,32.1562 L25.3288,32.1602 Z" id="Fill-62" fill="#3E6B34"></path>
            <path d="M11.3117,33.8184 C9.4247,32.5854 7.9577,30.6754 7.3417,28.0754 C9.0617,28.8014 10.8637,29.3104 12.7067,29.5894 C11.7757,30.2084 11.1867,31.6244 11.3147,33.8174 L11.3117,33.8184 Z" id="Fill-64" fill="#3E6B34"></path>
            <path d="M22.155,29.5547 C23.567,30.0257 24.488,31.0177 24.697,32.7707 C21.231,35.8387 15.858,36.3467 11.946,34.1967 C11.731,31.8457 12.272,30.3447 13.518,29.7037 C16.391,30.0687 19.301,30.0187 22.161,29.5547 L22.155,29.5547 Z" id="Fill-66" fill="#3E6B34"></path>
            <path d="M27.8483,24.4561 C22.8963,26.9061 16.4793,27.7691 11.0133,26.2931 C9.5623,25.9011 8.3373,25.3281 7.2693,24.5511 C7.1643,26.4711 7.1163,26.3541 7.1993,27.3561 C15.0883,30.1941 21.9813,30.0401 27.8753,26.8941 C27.9813,26.0831 27.9723,25.2621 27.8493,24.4531 L27.8483,24.4561 Z" id="Fill-68" fill="#FFFFFF"></path>
            <path d="M18.6667,34.2393 C16.0097,34.2393 13.7227,32.6813 12.6507,30.4313 C12.0327,31.2393 11.7907,32.4933 11.9457,34.1963 C15.8577,36.3463 21.2307,35.8393 24.6967,32.7703 C24.6257,32.1713 24.4647,31.6663 24.2347,31.2343 C23.0427,33.0443 20.9957,34.2393 18.6667,34.2393" id="Fill-70" fill="#375E2D"></path>
        </g>
    </g>
</svg>